<svg xmlns="http://www.w3.org/2000/svg" xmlns:xlink="http://www.w3.org/1999/xlink" width="327" zoomAndPan="magnify" viewBox="0 0 245.25 300.749996" height="401" preserveAspectRatio="xMidYMid meet" version="1.0"><defs><g/><clipPath id="1b9f7cba30"><path d="M 1.863281 28.96875 L 244.121094 28.96875 L 244.121094 271.230469 L 1.863281 271.230469 Z M 1.863281 28.96875 " clip-rule="nonzero"/></clipPath><clipPath id="721b349b09"><path d="M 122.992188 28.96875 C 56.09375 28.96875 1.863281 83.203125 1.863281 150.097656 C 1.863281 216.996094 56.09375 271.230469 122.992188 271.230469 C 189.890625 271.230469 244.121094 216.996094 244.121094 150.097656 C 244.121094 83.203125 189.890625 28.96875 122.992188 28.96875 Z M 122.992188 28.96875 " clip-rule="nonzero"/></clipPath><clipPath id="9a58fa6c39"><path d="M 0.863281 0.96875 L 243.121094 0.96875 L 243.121094 243.230469 L 0.863281 243.230469 Z M 0.863281 0.96875 " clip-rule="nonzero"/></clipPath><clipPath id="5953beee93"><path d="M 121.992188 0.96875 C 55.09375 0.96875 0.863281 55.203125 0.863281 122.097656 C 0.863281 188.996094 55.09375 243.230469 121.992188 243.230469 C 188.890625 243.230469 243.121094 188.996094 243.121094 122.097656 C 243.121094 55.203125 188.890625 0.96875 121.992188 0.96875 Z M 121.992188 0.96875 " clip-rule="nonzero"/></clipPath><clipPath id="2d5ce86a29"><rect x="0" width="244" y="0" height="244"/></clipPath><clipPath id="4334a6b50d"><path d="M 0 0.332031 L 227.304688 0.332031 L 227.304688 300 L 0 300 Z M 0 0.332031 " clip-rule="nonzero"/></clipPath><clipPath id="7b89a4f994"><rect x="0" width="201" y="0" height="74"/></clipPath></defs><g clip-path="url(#1b9f7cba30)"><g clip-path="url(#721b349b09)"><g transform="matrix(1, 0, 0, 1, 1, 28)"><g clip-path="url(#2d5ce86a29)"><g clip-path="url(#9a58fa6c39)"><g clip-path="url(#5953beee93)"><path fill="#a50707" d="M 0.863281 0.96875 L 243.121094 0.96875 L 243.121094 243.230469 L 0.863281 243.230469 Z M 0.863281 0.96875 " fill-opacity="1" fill-rule="nonzero"/></g></g></g></g></g></g><g clip-path="url(#4334a6b50d)"><path fill="#d31235" d="M 227.398438 0.339844 L 61.09375 135.25 L 101.820312 136.097656 L 39.878906 200.585938 L 76.363281 202.28125 L 0 299.859375 L 167.15625 164.949219 L 125.578125 162.402344 L 191.761719 97.914062 L 154.425781 95.371094 Z M 227.398438 0.339844 " fill-opacity="1" fill-rule="nonzero"/></g><g transform="matrix(1, 0, 0, 1, 22, 113)"><g clip-path="url(#7b89a4f994)"><g fill="#ffffff" fill-opacity="1"><g transform="translate(1.872697, 61.642251)"><g><path d="M 1.1875 -39.640625 L 2.09375 0 L 12.59375 -0.125 L 12.359375 -14.265625 L 31.515625 -14.328125 L 31.703125 -22.984375 L 12.234375 -22.625 L 12.125 -30.453125 L 34.75 -30.859375 L 34.75 -40.125 Z M 1.1875 -39.640625 "/></g></g></g><g fill="#ffffff" fill-opacity="1"><g transform="translate(37.813026, 61.642251)"><g><path d="M 1.375 -42.03125 L 1.1875 -0.359375 L 28.78125 0 L 28.78125 -11.515625 L 12.171875 -11.578125 L 13.671875 -41.375 Z M 1.375 -42.03125 "/></g></g></g><g fill="#ffffff" fill-opacity="1"><g transform="translate(67.783194, 61.642251)"><g><path d="M 42.625 -0.125 L 42.859375 -41.140625 L 2.6875 -42.453125 L 1.1875 -0.125 L 14.15625 0 L 14.8125 -18.390625 L 31.21875 -18.03125 L 31.34375 -0.0625 Z M 31.28125 -33.859375 L 31.515625 -26.15625 L 14.328125 -26.75 L 14.515625 -34.515625 Z M 31.28125 -33.859375 "/></g></g></g><g fill="#ffffff" fill-opacity="1"><g transform="translate(111.84292, 61.642251)"><g><path d="M 1.1875 -39.109375 L 2.5 -13.609375 L 29.1875 -14.75 L 29.25 -8.890625 L 2.859375 -8 L 3.40625 0.296875 L 40 -0.421875 L 38.6875 -24.890625 L 12.84375 -23.640625 L 12.421875 -29.25 L 38.625 -30.6875 L 37.671875 -41.4375 Z M 1.1875 -39.109375 "/></g></g></g><g fill="#ffffff" fill-opacity="1"><g transform="translate(153.036975, 61.642251)"><g><path d="M 12.890625 -23.640625 L 12.296875 -39.828125 L 1.1875 -39.53125 L 1.1875 0.171875 L 14.5625 0.171875 L 14.5625 -17.3125 L 32.125 -17.3125 L 32.359375 -0.421875 L 45.859375 -0.171875 L 45.609375 -39.828125 L 32.125 -39.53125 L 32.125 -23.28125 Z M 12.890625 -23.640625 "/></g></g></g></g></g></svg>