<svg xmlns="http://www.w3.org/2000/svg" xmlns:xlink="http://www.w3.org/1999/xlink" width="345" zoomAndPan="magnify" viewBox="0 0 258.75 408.749983" height="545" preserveAspectRatio="xMidYMid meet" version="1.0"><defs><g/><clipPath id="362138e4df"><path d="M 15.4375 165.339844 L 258.203125 165.339844 L 258.203125 408.105469 L 15.4375 408.105469 Z M 15.4375 165.339844 " clip-rule="nonzero"/></clipPath><clipPath id="0a706741a7"><path d="M 136.820312 165.339844 C 69.78125 165.339844 15.4375 219.6875 15.4375 286.722656 C 15.4375 353.761719 69.78125 408.105469 136.820312 408.105469 C 203.855469 408.105469 258.203125 353.761719 258.203125 286.722656 C 258.203125 219.6875 203.855469 165.339844 136.820312 165.339844 Z M 136.820312 165.339844 " clip-rule="nonzero"/></clipPath><clipPath id="4681a437dd"><path d="M 0.4375 0.339844 L 243.203125 0.339844 L 243.203125 243.105469 L 0.4375 243.105469 Z M 0.4375 0.339844 " clip-rule="nonzero"/></clipPath><clipPath id="cafa537eec"><path d="M 121.820312 0.339844 C 54.78125 0.339844 0.4375 54.6875 0.4375 121.722656 C 0.4375 188.761719 54.78125 243.105469 121.820312 243.105469 C 188.855469 243.105469 243.203125 188.761719 243.203125 121.722656 C 243.203125 54.6875 188.855469 0.339844 121.820312 0.339844 Z M 121.820312 0.339844 " clip-rule="nonzero"/></clipPath><clipPath id="95b83b9b20"><rect x="0" width="244" y="0" height="244"/></clipPath><clipPath id="fbc1c00da0"><path d="M 102 0.0742188 L 193 0.0742188 L 193 148 L 102 148 Z M 102 0.0742188 " clip-rule="nonzero"/></clipPath><clipPath id="2616599674"><rect x="0" width="179" y="0" height="74"/></clipPath></defs><g clip-path="url(#362138e4df)"><g clip-path="url(#0a706741a7)"><g transform="matrix(1, 0, 0, 1, 15, 165)"><g clip-path="url(#95b83b9b20)"><g clip-path="url(#4681a437dd)"><g clip-path="url(#cafa537eec)"><path fill="#ff8b02" d="M 0.4375 0.339844 L 243.203125 0.339844 L 243.203125 243.105469 L 0.4375 243.105469 Z M 0.4375 0.339844 " fill-opacity="1" fill-rule="nonzero"/></g></g></g></g></g></g><path fill="#cc6100" d="M 102.671875 194.957031 C 102.671875 194.957031 92.980469 200.851562 109.40625 202.535156 C 129.175781 205.054688 139.710938 204.640625 161.59375 200.433594 C 166 203.132812 170.628906 205.378906 175.480469 207.167969 C 126.246094 228.214844 63.9375 205.90625 102.660156 194.957031 Z M 96.367188 167.597656 C 96.367188 167.597656 85.84375 175.59375 102.261719 177.289062 C 123.726562 179.390625 140.558594 179.808594 169.613281 173.925781 C 172.476562 176.832031 175.84375 178.933594 179.710938 180.234375 C 120.363281 197.910156 53.863281 181.921875 96.367188 167.609375 Z M 212.535156 215.574219 C 212.535156 215.574219 219.6875 221.464844 204.539062 226.097656 C 176.339844 234.523438 86.269531 237.046875 61.015625 226.097656 C 52.175781 222.316406 69.011719 216.839844 74.40625 215.996094 C 79.878906 214.738281 82.835938 214.738281 82.835938 214.738281 C 73.144531 208.003906 18.4375 228.625 55.058594 234.507812 C 155.652344 250.925781 238.570312 227.355469 212.472656 215.574219 Z M 107.222656 138.972656 C 107.222656 138.972656 61.34375 149.921875 90.808594 153.703125 C 103.433594 155.390625 128.261719 154.964844 151.414062 153.285156 C 170.351562 151.601562 189.304688 148.246094 189.304688 148.246094 C 189.304688 148.246094 182.570312 151.191406 177.9375 154.136719 C 131.226562 166.347656 41.566406 160.871094 67.246094 148.246094 C 89.128906 137.722656 107.230469 138.988281 107.230469 138.988281 Z M 189.304688 184.851562 C 236.441406 160.429688 214.558594 136.878906 199.402344 139.816406 C 195.621094 140.660156 193.929688 141.503906 193.929688 141.503906 C 193.929688 141.503906 195.1875 138.980469 198.136719 138.136719 C 228.023438 127.613281 251.589844 169.703125 188.445312 186.109375 C 188.445312 186.109375 188.863281 185.695312 189.289062 184.851562 Z M 111.871094 251.351562 C 157.324219 254.296875 226.777344 249.664062 228.457031 228.191406 C 228.457031 228.191406 225.089844 236.621094 191 242.921875 C 152.273438 250.074219 104.292969 249.222656 76.09375 244.609375 C 76.09375 244.609375 81.984375 249.648438 111.871094 251.34375 Z M 111.871094 251.351562 " fill-opacity="1" fill-rule="nonzero"/><g clip-path="url(#fbc1c00da0)"><path fill="#f58219" d="M 160.757812 0.0820312 C 160.757812 0.0820312 186.855469 26.59375 135.929688 66.582031 C 95.101562 98.988281 126.671875 117.507812 135.929688 138.554688 C 111.933594 117.089844 94.683594 98.144531 106.46875 80.476562 C 123.71875 54.371094 171.28125 41.820312 160.757812 0.0820312 Z M 147.367188 120.878906 C 159.574219 134.765625 144.003906 147.394531 144.003906 147.394531 C 144.003906 147.394531 175.148438 131.402344 160.835938 111.617188 C 147.792969 92.679688 137.675781 83.414062 192.402344 51.851562 C 192.402344 51.851562 106.121094 73.316406 147.367188 120.878906 Z M 147.367188 120.878906 " fill-opacity="1" fill-rule="nonzero"/></g><g transform="matrix(1, 0, 0, 1, 26, 234)"><g clip-path="url(#2616599674)"><g fill="#ffffff" fill-opacity="1"><g transform="translate(0.883856, 61.929068)"><g><path d="M 13.8125 -20.34375 L 1.203125 -19.265625 L 2.515625 0 L 39.78125 -0.171875 L 38.59375 -42.53125 L 25.71875 -41.9375 L 26.5625 -13.46875 L 14.234375 -12.265625 Z M 13.8125 -20.34375 "/></g></g></g><g fill="#ffffff" fill-opacity="1"><g transform="translate(41.864877, 61.929068)"><g><path d="M 42.71875 -0.125 L 42.953125 -41.21875 L 2.6875 -42.53125 L 1.203125 -0.125 L 14.171875 0 L 14.84375 -18.421875 L 31.296875 -18.0625 L 31.40625 -0.0625 Z M 31.34375 -33.921875 L 31.59375 -26.203125 L 14.359375 -26.796875 L 14.53125 -34.578125 Z M 31.34375 -33.921875 "/></g></g></g><g fill="#ffffff" fill-opacity="1"><g transform="translate(86.016683, 61.929068)"><g><path d="M 24.53125 -13.578125 L 14.0625 -40.390625 L 1.203125 -39.96875 L 19.328125 -0.0625 L 31.46875 0 L 46.78125 -38.46875 L 34.703125 -39.1875 Z M 24.53125 -13.578125 "/></g></g></g><g fill="#ffffff" fill-opacity="1"><g transform="translate(133.997372, 61.929068)"><g><path d="M 42.71875 -0.125 L 42.953125 -41.21875 L 2.6875 -42.53125 L 1.203125 -0.125 L 14.171875 0 L 14.84375 -18.421875 L 31.296875 -18.0625 L 31.40625 -0.0625 Z M 31.34375 -33.921875 L 31.59375 -26.203125 L 14.359375 -26.796875 L 14.53125 -34.578125 Z M 31.34375 -33.921875 "/></g></g></g></g></g></svg>