<svg xmlns="http://www.w3.org/2000/svg" xmlns:xlink="http://www.w3.org/1999/xlink" width="529" zoomAndPan="magnify" viewBox="0 0 396.75 427.499982" height="570" preserveAspectRatio="xMidYMid meet" version="1.0"><defs><g/><clipPath id="233db4a35a"><path d="M 106.246094 121.828125 L 348.960938 121.828125 L 348.960938 364.542969 L 106.246094 364.542969 Z M 106.246094 121.828125 " clip-rule="nonzero"/></clipPath><clipPath id="2eb75795f4"><path d="M 227.605469 121.828125 C 160.582031 121.828125 106.246094 176.164062 106.246094 243.1875 C 106.246094 310.210938 160.582031 364.542969 227.605469 364.542969 C 294.628906 364.542969 348.960938 310.210938 348.960938 243.1875 C 348.960938 176.164062 294.628906 121.828125 227.605469 121.828125 Z M 227.605469 121.828125 " clip-rule="nonzero"/></clipPath><clipPath id="7a948c6d7b"><path d="M 0.246094 0.828125 L 242.960938 0.828125 L 242.960938 243.542969 L 0.246094 243.542969 Z M 0.246094 0.828125 " clip-rule="nonzero"/></clipPath><clipPath id="f41a562a3e"><path d="M 121.605469 0.828125 C 54.582031 0.828125 0.246094 55.164062 0.246094 122.1875 C 0.246094 189.210938 54.582031 243.542969 121.605469 243.542969 C 188.628906 243.542969 242.960938 189.210938 242.960938 122.1875 C 242.960938 55.164062 188.628906 0.828125 121.605469 0.828125 Z M 121.605469 0.828125 " clip-rule="nonzero"/></clipPath><clipPath id="f517af9230"><rect x="0" width="243" y="0" height="244"/></clipPath><clipPath id="0b8636584e"><path d="M 238 63 L 374 63 L 374 200 L 238 200 Z M 238 63 " clip-rule="nonzero"/></clipPath><clipPath id="a69a5ee193"><path d="M 280.742188 36.59375 L 395.695312 89.640625 L 342.644531 204.59375 L 227.695312 151.542969 Z M 280.742188 36.59375 " clip-rule="nonzero"/></clipPath><clipPath id="0c01a9c042"><path d="M 280.742188 36.59375 L 395.695312 89.640625 L 342.644531 204.59375 L 227.695312 151.542969 Z M 280.742188 36.59375 " clip-rule="nonzero"/></clipPath><clipPath id="79d86b5e03"><path d="M 146 343 L 261 343 L 261 427 L 146 427 Z M 146 343 " clip-rule="nonzero"/></clipPath><clipPath id="fda380cdce"><path d="M 251.734375 426.984375 L 146.824219 414.707031 L 155.183594 343.28125 L 260.09375 355.554688 Z M 251.734375 426.984375 " clip-rule="nonzero"/></clipPath><clipPath id="ce967e703c"><path d="M 6 13 L 112 13 L 112 78 L 6 78 Z M 6 13 " clip-rule="nonzero"/></clipPath><clipPath id="a9fbe499d7"><path d="M 105.734375 83.984375 L 0.824219 71.707031 L 9.183594 0.28125 L 114.09375 12.554688 Z M 105.734375 83.984375 " clip-rule="nonzero"/></clipPath><clipPath id="b495ac8ab2"><path d="M 0.800781 71.707031 L 105.710938 83.980469 L 114.070312 12.554688 L 9.160156 0.277344 Z M 0.800781 71.707031 " clip-rule="nonzero"/></clipPath><clipPath id="e00127e15f"><path d="M 12 2 L 40 2 L 40 29 L 12 29 Z M 12 2 " clip-rule="nonzero"/></clipPath><clipPath id="e6ec83354e"><path d="M 105.734375 83.984375 L 0.824219 71.707031 L 9.183594 0.28125 L 114.09375 12.554688 Z M 105.734375 83.984375 " clip-rule="nonzero"/></clipPath><clipPath id="d87f033267"><path d="M 0.800781 71.707031 L 105.710938 83.980469 L 114.070312 12.554688 L 9.160156 0.277344 Z M 0.800781 71.707031 " clip-rule="nonzero"/></clipPath><clipPath id="7acbd8a9fa"><path d="M 75 10 L 102 10 L 102 37 L 75 37 Z M 75 10 " clip-rule="nonzero"/></clipPath><clipPath id="3cfa94e7ef"><path d="M 105.734375 83.984375 L 0.824219 71.707031 L 9.183594 0.28125 L 114.09375 12.554688 Z M 105.734375 83.984375 " clip-rule="nonzero"/></clipPath><clipPath id="aa61e85c4c"><path d="M 0.800781 71.707031 L 105.710938 83.980469 L 114.070312 12.554688 L 9.160156 0.277344 Z M 0.800781 71.707031 " clip-rule="nonzero"/></clipPath><clipPath id="ae7dc33c70"><path d="M 82 16 L 96 16 L 96 30 L 82 30 Z M 82 16 " clip-rule="nonzero"/></clipPath><clipPath id="83219cef79"><path d="M 105.734375 83.984375 L 0.824219 71.707031 L 9.183594 0.28125 L 114.09375 12.554688 Z M 105.734375 83.984375 " clip-rule="nonzero"/></clipPath><clipPath id="d94b68f496"><path d="M 0.800781 71.707031 L 105.710938 83.980469 L 114.070312 12.554688 L 9.160156 0.277344 Z M 0.800781 71.707031 " clip-rule="nonzero"/></clipPath><clipPath id="1e5b9c4968"><path d="M 19 9 L 33 9 L 33 23 L 19 23 Z M 19 9 " clip-rule="nonzero"/></clipPath><clipPath id="298c6a10e2"><path d="M 105.734375 83.984375 L 0.824219 71.707031 L 9.183594 0.28125 L 114.09375 12.554688 Z M 105.734375 83.984375 " clip-rule="nonzero"/></clipPath><clipPath id="23cdaf029b"><path d="M 0.800781 71.707031 L 105.710938 83.980469 L 114.070312 12.554688 L 9.160156 0.277344 Z M 0.800781 71.707031 " clip-rule="nonzero"/></clipPath><clipPath id="3280a6e592"><path d="M 45 48 L 82 48 L 82 73 L 45 73 Z M 45 48 " clip-rule="nonzero"/></clipPath><clipPath id="c6e6a4c365"><path d="M 105.734375 83.984375 L 0.824219 71.707031 L 9.183594 0.28125 L 114.09375 12.554688 Z M 105.734375 83.984375 " clip-rule="nonzero"/></clipPath><clipPath id="d5d66f1fa7"><path d="M 0.800781 71.707031 L 105.710938 83.980469 L 114.070312 12.554688 L 9.160156 0.277344 Z M 0.800781 71.707031 " clip-rule="nonzero"/></clipPath><clipPath id="258cb6cb7c"><path d="M 16 44 L 44 44 L 44 71 L 16 71 Z M 16 44 " clip-rule="nonzero"/></clipPath><clipPath id="e9d4a45145"><path d="M 105.734375 83.984375 L 0.824219 71.707031 L 9.183594 0.28125 L 114.09375 12.554688 Z M 105.734375 83.984375 " clip-rule="nonzero"/></clipPath><clipPath id="5ba64820f5"><path d="M 0.800781 71.707031 L 105.710938 83.980469 L 114.070312 12.554688 L 9.160156 0.277344 Z M 0.800781 71.707031 " clip-rule="nonzero"/></clipPath><clipPath id="f9d9aefbde"><path d="M 48 39 L 57 39 L 57 43 L 48 43 Z M 48 39 " clip-rule="nonzero"/></clipPath><clipPath id="c59d419215"><path d="M 105.734375 83.984375 L 0.824219 71.707031 L 9.183594 0.28125 L 114.09375 12.554688 Z M 105.734375 83.984375 " clip-rule="nonzero"/></clipPath><clipPath id="ee765b4ab0"><path d="M 0.800781 71.707031 L 105.710938 83.980469 L 114.070312 12.554688 L 9.160156 0.277344 Z M 0.800781 71.707031 " clip-rule="nonzero"/></clipPath><clipPath id="07c252a045"><path d="M 104 38 L 112 38 L 112 49 L 104 49 Z M 104 38 " clip-rule="nonzero"/></clipPath><clipPath id="dfe915d061"><path d="M 105.734375 83.984375 L 0.824219 71.707031 L 9.183594 0.28125 L 114.09375 12.554688 Z M 105.734375 83.984375 " clip-rule="nonzero"/></clipPath><clipPath id="1d35fd84fe"><path d="M 0.800781 71.707031 L 105.710938 83.980469 L 114.070312 12.554688 L 9.160156 0.277344 Z M 0.800781 71.707031 " clip-rule="nonzero"/></clipPath><clipPath id="034106b46e"><path d="M 5 26 L 11 26 L 11 38 L 5 38 Z M 5 26 " clip-rule="nonzero"/></clipPath><clipPath id="ce66734e7c"><path d="M 105.734375 83.984375 L 0.824219 71.707031 L 9.183594 0.28125 L 114.09375 12.554688 Z M 105.734375 83.984375 " clip-rule="nonzero"/></clipPath><clipPath id="5c7ba7d4b7"><path d="M 0.800781 71.707031 L 105.710938 83.980469 L 114.070312 12.554688 L 9.160156 0.277344 Z M 0.800781 71.707031 " clip-rule="nonzero"/></clipPath><clipPath id="3a73fe495d"><rect x="0" width="115" y="0" height="84"/></clipPath><clipPath id="6cd356d330"><path d="M 34 39 L 176 39 L 176 164 L 34 164 Z M 34 39 " clip-rule="nonzero"/></clipPath><clipPath id="18114cb9f9"><path d="M 0.109375 91.140625 L 125.25 0 L 186.011719 83.425781 L 60.867188 174.566406 Z M 0.109375 91.140625 " clip-rule="nonzero"/></clipPath><clipPath id="ffe338c217"><path d="M 56.722656 49.90625 C 79.386719 33.402344 112.359375 36.878906 127.734375 59.828125 L 132.238281 56.550781 C 144.578125 47.5625 161.621094 49.933594 170.296875 61.851562 C 178.976562 73.765625 176.007812 90.714844 163.664062 99.703125 L 83.214844 158.292969 C 70.875 167.28125 53.832031 164.90625 45.15625 152.992188 C 38.289062 143.5625 38.71875 130.984375 45.308594 121.691406 C 27.121094 100.15625 33.582031 66.761719 56.722656 49.90625 Z M 56.722656 49.90625 " clip-rule="nonzero"/></clipPath><clipPath id="503f0469e5"><path d="M 0 0 L 142 0 L 142 125 L 0 125 Z M 0 0 " clip-rule="nonzero"/></clipPath><clipPath id="07799fdc2a"><path d="M -33.890625 52.140625 L 91.25 -39 L 152.011719 44.425781 L 26.867188 135.566406 Z M -33.890625 52.140625 " clip-rule="nonzero"/></clipPath><clipPath id="94723aa03d"><path d="M 22.722656 10.90625 C 45.386719 -5.597656 78.359375 -2.121094 93.734375 20.828125 L 98.238281 17.550781 C 110.578125 8.5625 127.621094 10.933594 136.296875 22.851562 C 144.976562 34.765625 142.007812 51.714844 129.664062 60.703125 L 49.214844 119.292969 C 36.875 128.28125 19.832031 125.90625 11.15625 113.992188 C 4.289062 104.5625 4.71875 91.984375 11.308594 82.691406 C -6.878906 61.15625 -0.417969 27.761719 22.722656 10.90625 Z M 22.722656 10.90625 " clip-rule="nonzero"/></clipPath><clipPath id="a5ae837e63"><rect x="0" width="142" y="0" height="125"/></clipPath><clipPath id="339a20849b"><path d="M 34 39 L 176 39 L 176 164 L 34 164 Z M 34 39 " clip-rule="nonzero"/></clipPath><clipPath id="e5bfa2c1f3"><path d="M 0.109375 91.140625 L 125.457031 -0.152344 L 186.316406 83.414062 L 60.96875 174.703125 Z M 0.109375 91.140625 " clip-rule="nonzero"/></clipPath><clipPath id="8997565de9"><path d="M 0.109375 91.136719 L 125.246094 0.00390625 L 186.003906 83.425781 L 60.867188 174.5625 Z M 0.109375 91.136719 " clip-rule="nonzero"/></clipPath><clipPath id="2af5fd1406"><path d="M 56.722656 49.910156 C 79.386719 33.402344 112.355469 36.882812 127.730469 59.828125 L 132.234375 56.550781 C 144.574219 47.5625 161.613281 49.9375 170.289062 61.851562 C 178.96875 73.765625 176 90.710938 163.65625 99.699219 L 83.214844 158.289062 C 70.871094 167.273438 53.832031 164.902344 45.15625 152.984375 C 38.289062 143.558594 38.71875 130.980469 45.308594 121.6875 C 27.121094 100.15625 33.582031 66.761719 56.722656 49.910156 Z M 56.722656 49.910156 " clip-rule="nonzero"/></clipPath><clipPath id="c41c730898"><rect x="0" width="201" y="0" height="74"/></clipPath></defs><g clip-path="url(#233db4a35a)"><g clip-path="url(#2eb75795f4)"><g transform="matrix(1, 0, 0, 1, 106, 121)"><g clip-path="url(#f517af9230)"><g clip-path="url(#7a948c6d7b)"><g clip-path="url(#f41a562a3e)"><path fill="#a427ca" d="M 0.246094 0.828125 L 242.960938 0.828125 L 242.960938 243.542969 L 0.246094 243.542969 Z M 0.246094 0.828125 " fill-opacity="1" fill-rule="nonzero"/></g></g></g></g></g></g><g clip-path="url(#0b8636584e)"><g clip-path="url(#a69a5ee193)"><g clip-path="url(#0c01a9c042)"><path fill="#a427ca" d="M 372.90625 137.441406 L 339.425781 64.394531 C 338.90625 63.433594 337.917969 62.980469 336.851562 63.207031 L 259.546875 85.125 C 258.390625 85.550781 257.644531 86.644531 258.070312 87.800781 C 258.496094 88.957031 259.589844 89.703125 260.75 89.277344 L 269.925781 86.554688 L 238.609375 154.414062 C 238.058594 155.601562 238.488281 156.757812 239.671875 157.304688 L 330.679688 199.304688 C 331.867188 199.851562 333.023438 199.425781 333.570312 198.238281 L 364.886719 130.378906 L 368.769531 139.128906 C 368.980469 139.707031 369.378906 139.890625 369.972656 140.164062 C 370.5625 140.4375 371.25 140.515625 371.828125 140.300781 C 372.785156 139.785156 373.425781 138.398438 372.90625 137.441406 Z M 372.90625 137.441406 " fill-opacity="1" fill-rule="nonzero"/></g></g></g><g clip-path="url(#79d86b5e03)"><g clip-path="url(#fda380cdce)"><g transform="matrix(1, 0, 0, 1, 146, 343)"><g clip-path="url(#3a73fe495d)"><g clip-path="url(#ce967e703c)"><g clip-path="url(#a9fbe499d7)"><g clip-path="url(#b495ac8ab2)"><path fill="#a427ca" d="M 111.304688 34.121094 C 111.253906 31.777344 111.09375 28.980469 109.621094 27.050781 C 108.253906 25.257812 105.949219 25.15625 103.894531 24.90625 C 96.378906 24 88.84375 23.222656 81.324219 22.335938 C 81.320312 22.34375 81.316406 22.351562 81.316406 22.359375 C 56.890625 19.523438 32.421875 16.867188 8.019531 13.855469 C 8.019531 13.855469 7.105469 21.671875 7.074219 21.921875 C 5.246094 37.546875 8.460938 63.816406 24.851562 71.515625 C 29.480469 73.6875 34.113281 75.089844 39.492188 75.992188 C 48.601562 77.523438 57.9375 78.625 66.902344 77.222656 C 69.535156 76.8125 71.957031 75.816406 74.171875 74.238281 C 76.625 72.488281 78.84375 70.460938 80.839844 68.164062 C 82.621094 66.101562 83.929688 63.695312 85.761719 61.15625 C 86.890625 59.589844 87.960938 57.886719 88.960938 56.042969 C 89.5 55.042969 90.335938 54.457031 91.46875 54.289062 C 95.398438 53.714844 98.871094 53.136719 102.351562 51.785156 C 108.96875 49.222656 111.445312 40.558594 111.304688 34.121094 Z M 111.304688 34.121094 " fill-opacity="1" fill-rule="nonzero"/></g></g></g><g clip-path="url(#e00127e15f)"><g clip-path="url(#e6ec83354e)"><g clip-path="url(#d87f033267)"><path fill="#a427ca" d="M 38.933594 17.277344 C 39.773438 10.097656 34.636719 3.597656 27.457031 2.757812 C 20.28125 1.917969 13.78125 7.058594 12.941406 14.234375 C 12.101562 21.410156 17.238281 27.910156 24.417969 28.75 C 31.59375 29.589844 38.09375 24.453125 38.933594 17.277344 Z M 38.933594 17.277344 " fill-opacity="1" fill-rule="nonzero"/></g></g></g><g clip-path="url(#7acbd8a9fa)"><g clip-path="url(#3cfa94e7ef)"><g clip-path="url(#aa61e85c4c)"><path fill="#a427ca" d="M 101.894531 24.644531 C 102.734375 17.464844 97.597656 10.96875 90.417969 10.128906 C 83.242188 9.289062 76.742188 14.425781 75.902344 21.601562 C 75.0625 28.777344 80.199219 35.277344 87.378906 36.117188 C 94.554688 36.957031 101.054688 31.820312 101.894531 24.644531 Z M 101.894531 24.644531 " fill-opacity="1" fill-rule="nonzero"/></g></g></g><g clip-path="url(#ae7dc33c70)"><g clip-path="url(#83219cef79)"><g clip-path="url(#d94b68f496)"><path fill="#fcf8e8" d="M 95.539062 23.898438 C 95.96875 20.230469 93.34375 16.910156 89.675781 16.480469 C 86.007812 16.050781 82.6875 18.675781 82.257812 22.34375 C 81.828125 26.011719 84.453125 29.335938 88.121094 29.765625 C 91.789062 30.191406 95.113281 27.566406 95.539062 23.898438 Z M 95.539062 23.898438 " fill-opacity="1" fill-rule="nonzero"/></g></g></g><g clip-path="url(#1e5b9c4968)"><g clip-path="url(#298c6a10e2)"><g clip-path="url(#23cdaf029b)"><path fill="#fcf8e8" d="M 32.578125 16.53125 C 33.007812 12.863281 30.382812 9.542969 26.714844 9.113281 C 23.046875 8.683594 19.726562 11.308594 19.296875 14.976562 C 18.867188 18.648438 21.492188 21.96875 25.160156 22.398438 C 28.828125 22.828125 32.148438 20.199219 32.578125 16.53125 Z M 32.578125 16.53125 " fill-opacity="1" fill-rule="nonzero"/></g></g></g><g clip-path="url(#3280a6e592)"><g clip-path="url(#c6e6a4c365)"><g clip-path="url(#d5d66f1fa7)"><path fill="#fcf8e8" d="M 81.804688 54.386719 C 82.128906 53.371094 81.648438 52.351562 80.75 51.820312 C 80.40625 51.609375 79.75 51.449219 78.78125 51.328125 C 70.859375 50.359375 61.644531 49.265625 51.128906 48.058594 C 48.398438 47.742188 47.894531 49.410156 47.605469 51.804688 C 47.183594 55.347656 46.5625 60.601562 45.746094 67.566406 C 45.558594 69.164062 45.542969 70.785156 47.050781 71.585938 C 47.367188 71.753906 48.296875 71.929688 49.84375 72.109375 C 55.929688 72.820312 61.59375 72.914062 67.363281 70.878906 C 70.988281 69.605469 73.558594 67.3125 75.835938 64.367188 C 77.539062 62.160156 78.566406 60.800781 78.921875 60.289062 C 80.152344 58.507812 81.113281 56.542969 81.804688 54.386719 Z M 81.804688 54.386719 " fill-opacity="1" fill-rule="nonzero"/></g></g></g><g clip-path="url(#258cb6cb7c)"><g clip-path="url(#e9d4a45145)"><g clip-path="url(#5ba64820f5)"><path fill="#fcf8e8" d="M 31.871094 69.277344 C 33.648438 69.792969 35.613281 70.164062 37.777344 70.394531 C 40.410156 70.675781 40.980469 68.917969 41.261719 66.773438 C 41.730469 63.238281 42.347656 57.96875 43.113281 50.972656 C 43.253906 49.671875 43.210938 48.773438 42.988281 48.277344 C 42.613281 47.460938 41.875 46.988281 40.761719 46.855469 C 31.222656 45.722656 24.539062 44.917969 20.707031 44.449219 C 19.46875 44.300781 18.632812 44.34375 18.199219 44.585938 C 16.132812 45.726562 16.628906 48.589844 17.039062 50.785156 C 17.660156 54.132812 18.660156 57.289062 20.03125 60.246094 C 22.160156 64.820312 27.125 67.914062 31.871094 69.277344 Z M 31.871094 69.277344 " fill-opacity="1" fill-rule="nonzero"/></g></g></g><g clip-path="url(#f9d9aefbde)"><g clip-path="url(#c59d419215)"><g clip-path="url(#ee765b4ab0)"><path fill="#a427ca" d="M 56.914062 41.378906 C 57.003906 40.605469 56.453125 39.910156 55.683594 39.816406 L 50.480469 39.210938 C 49.707031 39.117188 49.007812 39.671875 48.917969 40.441406 L 48.890625 40.699219 C 48.796875 41.472656 49.351562 42.171875 50.121094 42.261719 L 55.324219 42.871094 C 56.097656 42.960938 56.792969 42.40625 56.882812 41.636719 Z M 56.914062 41.378906 " fill-opacity="1" fill-rule="nonzero"/></g></g></g><g clip-path="url(#07c252a045)"><g clip-path="url(#dfe915d061)"><g clip-path="url(#1d35fd84fe)"><path fill="#a427ca" d="M 111.003906 38.71875 C 109.746094 38.574219 108.785156 38.433594 107.636719 38.941406 C 105.429688 39.914062 104.085938 43.085938 104.023438 45.25 C 103.964844 47.242188 105.054688 48.476562 107.304688 48.953125 C 108.523438 47.113281 109.492188 45.03125 110.210938 42.699219 C 110.582031 41.488281 110.847656 40.160156 111.003906 38.71875 Z M 111.003906 38.71875 " fill-opacity="1" fill-rule="nonzero"/></g></g></g><g clip-path="url(#034106b46e)"><g clip-path="url(#ce66734e7c)"><g clip-path="url(#5c7ba7d4b7)"><path fill="#a427ca" d="M 8.054688 37.136719 C 9.289062 36.941406 10.039062 36.261719 10.304688 35.089844 C 10.960938 32.179688 10.71875 27.132812 6.910156 26.554688 C 6.492188 26.703125 6.25 26.921875 6.179688 27.210938 C 5.433594 30.25 5.480469 33.101562 6.316406 35.75 C 6.539062 36.449219 7.117188 36.910156 8.054688 37.136719 Z M 8.054688 37.136719 " fill-opacity="1" fill-rule="nonzero"/></g></g></g></g></g></g></g><g clip-path="url(#6cd356d330)"><g clip-path="url(#18114cb9f9)"><g clip-path="url(#ffe338c217)"><g transform="matrix(1, 0, 0, 1, 34, 39)"><g clip-path="url(#a5ae837e63)"><g clip-path="url(#503f0469e5)"><g clip-path="url(#07799fdc2a)"><g clip-path="url(#94723aa03d)"><path fill="#a427ca" d="M -33.890625 52.140625 L 91.25 -39 L 152.011719 44.425781 L 26.867188 135.566406 Z M -33.890625 52.140625 " fill-opacity="1" fill-rule="nonzero"/></g></g></g></g></g></g></g></g><g clip-path="url(#339a20849b)"><g clip-path="url(#e5bfa2c1f3)"><g clip-path="url(#8997565de9)"><g clip-path="url(#2af5fd1406)"><path stroke-linecap="butt" transform="matrix(0.605551, -0.441016, 0.441016, 0.605551, 0.108345, 91.13899)" fill="none" stroke-linejoin="miter" d="M 93.490133 0.00297109 C 130.918767 0.00100478 163.758658 29.665551 162.317235 66.507433 L 169.752737 66.510457 C 190.131657 66.509047 206.651302 82.462175 206.650114 102.136071 C 206.653141 121.813037 190.132999 137.764914 169.749864 137.763255 L 36.905625 137.768912 C 16.52556 137.763037 0.00284616 121.814124 0.00710387 102.136013 C 0.00441322 86.568414 10.352757 73.333613 24.766558 68.484713 C 22.061882 30.95844 55.277122 0.00134924 93.490133 0.00297109 Z M 93.490133 0.00297109 " stroke="#a427ca" stroke-width="14" stroke-opacity="1" stroke-miterlimit="4"/></g></g></g></g><g transform="matrix(1, 0, 0, 1, 114, 194)"><g clip-path="url(#c41c730898)"><g fill="#ffffff" fill-opacity="1"><g transform="translate(0.348356, 61.882427)"><g><path d="M 12.921875 -23.6875 L 12.328125 -39.890625 L 1.203125 -39.59375 L 1.203125 0.171875 L 14.59375 0.171875 L 14.59375 -17.34375 L 32.171875 -17.34375 L 32.421875 -0.421875 L 45.9375 -0.171875 L 45.703125 -39.890625 L 32.171875 -39.59375 L 32.171875 -23.328125 Z M 12.921875 -23.6875 "/></g></g></g><g fill="#ffffff" fill-opacity="1"><g transform="translate(47.481908, 61.882427)"><g><path d="M 42.828125 -40.90625 L 1.203125 -38.34375 L 1.90625 -0.296875 L 44.5 -0.0625 Z M 13.453125 -10.953125 L 12.4375 -31.046875 L 32.71875 -31.9375 L 33.015625 -10.953125 Z M 13.453125 -10.953125 "/></g></g></g><g fill="#ffffff" fill-opacity="1"><g transform="translate(93.179915, 61.882427)"><g><path d="M 1.203125 -39.65625 L 1.796875 0 L 13.15625 -0.359375 L 13.578125 -31.109375 L 27.75 -30.6875 L 27.390625 0 L 35.171875 -0.359375 L 34.390625 -30.078125 L 50.59375 -29.0625 L 50.59375 -0.359375 L 62.203125 0.359375 L 61.125 -37.6875 Z M 1.203125 -39.65625 "/></g></g></g><g fill="#ffffff" fill-opacity="1"><g transform="translate(156.582904, 61.882427)"><g><path d="M 13.515625 -23.328125 L 13.515625 -30.078125 L 42.703125 -29.78125 L 42.703125 -40.3125 L 1.203125 -40.90625 L 1.609375 -0.125 L 41.5625 0.125 L 41.203125 -9.75 L 13.8125 -10.46875 L 13.9375 -17.703125 L 36.421875 -17.34375 L 36.78125 -22.90625 Z M 13.515625 -23.328125 "/></g></g></g></g></g></svg>