<svg xmlns="http://www.w3.org/2000/svg" xmlns:xlink="http://www.w3.org/1999/xlink" width="643" zoomAndPan="magnify" viewBox="0 0 482.25 451.5" height="602" preserveAspectRatio="xMidYMid meet" version="1.0"><defs><g/><clipPath id="6640739e83"><path d="M 115.121094 130.777344 L 357.742188 130.777344 L 357.742188 373.402344 L 115.121094 373.402344 Z M 115.121094 130.777344 " clip-rule="nonzero"/></clipPath><clipPath id="2169538e0c"><path d="M 236.429688 130.777344 C 169.433594 130.777344 115.121094 185.09375 115.121094 252.089844 C 115.121094 319.089844 169.433594 373.402344 236.429688 373.402344 C 303.429688 373.402344 357.742188 319.089844 357.742188 252.089844 C 357.742188 185.09375 303.429688 130.777344 236.429688 130.777344 Z M 236.429688 130.777344 " clip-rule="nonzero"/></clipPath><clipPath id="fcfe6ee274"><path d="M 0.121094 0.777344 L 242.742188 0.777344 L 242.742188 243.402344 L 0.121094 243.402344 Z M 0.121094 0.777344 " clip-rule="nonzero"/></clipPath><clipPath id="02a94bcf59"><path d="M 121.429688 0.777344 C 54.433594 0.777344 0.121094 55.09375 0.121094 122.089844 C 0.121094 189.089844 54.433594 243.402344 121.429688 243.402344 C 188.429688 243.402344 242.742188 189.089844 242.742188 122.089844 C 242.742188 55.09375 188.429688 0.777344 121.429688 0.777344 Z M 121.429688 0.777344 " clip-rule="nonzero"/></clipPath><clipPath id="982b4f3c37"><rect x="0" width="243" y="0" height="244"/></clipPath><clipPath id="c3d29cedc5"><path d="M 180 52 L 431 52 L 431 287 L 180 287 Z M 180 52 " clip-rule="nonzero"/></clipPath><clipPath id="18a08184c8"><path d="M 275.765625 0.101562 L 481.230469 172.304688 L 385.507812 286.515625 L 180.046875 114.3125 Z M 275.765625 0.101562 " clip-rule="nonzero"/></clipPath><clipPath id="2e1cdf44ba"><path d="M 275.765625 0.101562 L 481.230469 172.304688 L 339.332031 341.609375 L 133.867188 169.410156 Z M 275.765625 0.101562 " clip-rule="nonzero"/></clipPath><clipPath id="99dd256324"><path d="M 221 98 L 384 98 L 384 257 L 221 257 Z M 221 98 " clip-rule="nonzero"/></clipPath><clipPath id="5371397723"><path d="M 275.765625 0.101562 L 481.230469 172.304688 L 385.507812 286.515625 L 180.046875 114.3125 Z M 275.765625 0.101562 " clip-rule="nonzero"/></clipPath><clipPath id="737053195c"><path d="M 275.765625 0.101562 L 481.230469 172.304688 L 339.332031 341.609375 L 133.867188 169.410156 Z M 275.765625 0.101562 " clip-rule="nonzero"/></clipPath><clipPath id="c142f67c60"><path d="M 262 137 L 350 137 L 350 224 L 262 224 Z M 262 137 " clip-rule="nonzero"/></clipPath><clipPath id="ff3ff1d622"><path d="M 275.765625 0.101562 L 481.230469 172.304688 L 385.507812 286.515625 L 180.046875 114.3125 Z M 275.765625 0.101562 " clip-rule="nonzero"/></clipPath><clipPath id="c6054af802"><path d="M 275.765625 0.101562 L 481.230469 172.304688 L 339.332031 341.609375 L 133.867188 169.410156 Z M 275.765625 0.101562 " clip-rule="nonzero"/></clipPath><clipPath id="5fda3f4126"><path d="M 128 338 L 177 338 L 177 419 L 128 419 Z M 128 338 " clip-rule="nonzero"/></clipPath><clipPath id="cf3b582192"><path d="M 136.929688 450.449219 L 0.167969 342.101562 L 83.40625 237.035156 L 220.164062 345.382812 Z M 136.929688 450.449219 " clip-rule="nonzero"/></clipPath><clipPath id="adaff5449d"><path d="M 136.929688 450.449219 L 0.167969 342.101562 L 83.40625 237.035156 L 220.164062 345.382812 Z M 136.929688 450.449219 " clip-rule="nonzero"/></clipPath><clipPath id="bec939589b"><path d="M 54 309 L 145 309 L 145 395 L 54 395 Z M 54 309 " clip-rule="nonzero"/></clipPath><clipPath id="1afe8e56cf"><path d="M 136.929688 450.449219 L 0.167969 342.101562 L 83.40625 237.035156 L 220.164062 345.382812 Z M 136.929688 450.449219 " clip-rule="nonzero"/></clipPath><clipPath id="e1cc5d42da"><path d="M 136.929688 450.449219 L 0.167969 342.101562 L 83.40625 237.035156 L 220.164062 345.382812 Z M 136.929688 450.449219 " clip-rule="nonzero"/></clipPath><clipPath id="41efcde003"><path d="M 56 266 L 131 266 L 131 310 L 56 310 Z M 56 266 " clip-rule="nonzero"/></clipPath><clipPath id="659b10fdf3"><path d="M 136.929688 450.449219 L 0.167969 342.101562 L 83.40625 237.035156 L 220.164062 345.382812 Z M 136.929688 450.449219 " clip-rule="nonzero"/></clipPath><clipPath id="569e004600"><path d="M 136.929688 450.449219 L 0.167969 342.101562 L 83.40625 237.035156 L 220.164062 345.382812 Z M 136.929688 450.449219 " clip-rule="nonzero"/></clipPath><clipPath id="df3d41ad2e"><path d="M 128 344 L 177 344 L 177 426 L 128 426 Z M 128 344 " clip-rule="nonzero"/></clipPath><clipPath id="860394355c"><path d="M 136.929688 450.449219 L 0.167969 342.101562 L 83.40625 237.035156 L 220.164062 345.382812 Z M 136.929688 450.449219 " clip-rule="nonzero"/></clipPath><clipPath id="50252021f4"><path d="M 136.929688 450.449219 L 0.167969 342.101562 L 83.40625 237.035156 L 220.164062 345.382812 Z M 136.929688 450.449219 " clip-rule="nonzero"/></clipPath><clipPath id="d1ff239313"><path d="M 54 316 L 144 316 L 144 401 L 54 401 Z M 54 316 " clip-rule="nonzero"/></clipPath><clipPath id="a4b324a2df"><path d="M 136.929688 450.449219 L 0.167969 342.101562 L 83.40625 237.035156 L 220.164062 345.382812 Z M 136.929688 450.449219 " clip-rule="nonzero"/></clipPath><clipPath id="34e9adb907"><path d="M 136.929688 450.449219 L 0.167969 342.101562 L 83.40625 237.035156 L 220.164062 345.382812 Z M 136.929688 450.449219 " clip-rule="nonzero"/></clipPath><clipPath id="f8a974ef1c"><path d="M 56 273 L 130 273 L 130 316 L 56 316 Z M 56 273 " clip-rule="nonzero"/></clipPath><clipPath id="7b4e646f31"><path d="M 136.929688 450.449219 L 0.167969 342.101562 L 83.40625 237.035156 L 220.164062 345.382812 Z M 136.929688 450.449219 " clip-rule="nonzero"/></clipPath><clipPath id="3ad721b63f"><path d="M 136.929688 450.449219 L 0.167969 342.101562 L 83.40625 237.035156 L 220.164062 345.382812 Z M 136.929688 450.449219 " clip-rule="nonzero"/></clipPath><clipPath id="93cdc30b3f"><rect x="0" width="254" y="0" height="158"/></clipPath></defs><g clip-path="url(#6640739e83)"><g clip-path="url(#2169538e0c)"><g transform="matrix(1, 0, 0, 1, 115, 130)"><g clip-path="url(#982b4f3c37)"><g clip-path="url(#fcfe6ee274)"><g clip-path="url(#02a94bcf59)"><path fill="#ffcc00" d="M 0.121094 0.777344 L 242.742188 0.777344 L 242.742188 243.402344 L 0.121094 243.402344 Z M 0.121094 0.777344 " fill-opacity="1" fill-rule="nonzero"/></g></g></g></g></g></g><g clip-path="url(#c3d29cedc5)"><g clip-path="url(#18a08184c8)"><g clip-path="url(#2e1cdf44ba)"><path fill="#ffdb49" d="M 378.550781 86.246094 L 368.753906 135.613281 L 423.167969 146.996094 L 385.96875 178.472656 L 430.621094 215.898438 L 377.832031 219.488281 L 398.550781 271.070312 L 346.925781 245.636719 L 337.128906 295.003906 L 303.0625 248.621094 L 265.863281 280.09375 L 260.171875 227.488281 L 207.382812 231.078125 L 231.871094 188.949219 L 180.246094 163.515625 L 227.140625 145.242188 L 193.074219 98.859375 L 247.488281 110.242188 L 241.792969 57.636719 L 286.449219 95.0625 L 310.9375 52.933594 L 331.65625 104.519531 Z M 378.550781 86.246094 " fill-opacity="1" fill-rule="evenodd"/></g></g></g><g clip-path="url(#99dd256324)"><g clip-path="url(#5371397723)"><g clip-path="url(#737053195c)"><path fill="#ffdb49" d="M 352.339844 118.59375 L 344.964844 151.308594 L 380.1875 157.710938 L 355.316406 179.1875 L 383.65625 202.941406 L 349.191406 206.367188 L 361.652344 239.925781 L 328.527344 224.214844 L 321.15625 256.925781 L 299.894531 227.058594 L 275.023438 248.539062 L 272.375 214.003906 L 237.90625 217.429688 L 254.710938 189.191406 L 221.589844 173.476562 L 252.507812 160.496094 L 231.246094 130.632812 L 266.46875 137.035156 L 263.816406 102.5 L 292.15625 126.253906 L 308.957031 98.011719 L 321.417969 131.574219 Z M 352.339844 118.59375 " fill-opacity="1" fill-rule="evenodd"/></g></g></g><g clip-path="url(#c142f67c60)"><g clip-path="url(#ff3ff1d622)"><g clip-path="url(#c6054af802)"><path fill="#ffdb49" d="M 332.28125 149.277344 L 328.574219 166.804688 L 347.671875 170.546875 L 334.40625 181.886719 L 349.933594 194.898438 L 331.324219 196.449219 L 338.347656 214.601562 L 320.304688 205.867188 L 316.59375 223.394531 L 304.84375 207.15625 L 291.578125 218.496094 L 289.851562 199.902344 L 271.242188 201.453125 L 280.089844 186.410156 L 262.046875 177.675781 L 278.65625 170.960938 L 266.90625 154.71875 L 286.003906 158.464844 L 284.277344 139.871094 L 299.804688 152.882812 L 308.648438 137.839844 L 315.671875 155.992188 Z M 332.28125 149.277344 " fill-opacity="1" fill-rule="evenodd"/></g></g></g><g clip-path="url(#5fda3f4126)"><g clip-path="url(#cf3b582192)"><g clip-path="url(#adaff5449d)"><path fill="#ffcc00" d="M 157.027344 418.988281 L 128.753906 396.589844 L 160.496094 338.019531 L 176.699219 350.855469 Z M 157.027344 418.988281 " fill-opacity="1" fill-rule="nonzero"/></g></g></g><g clip-path="url(#bec939589b)"><g clip-path="url(#1afe8e56cf)"><g clip-path="url(#e1cc5d42da)"><path fill="#ffcc00" d="M 74.957031 394.253906 L 144.410156 326.128906 L 135.773438 309.566406 L 54.847656 359.957031 Z M 74.957031 394.253906 " fill-opacity="1" fill-rule="nonzero"/></g></g></g><g clip-path="url(#41efcde003)"><g clip-path="url(#659b10fdf3)"><g clip-path="url(#569e004600)"><path fill="#ffcc00" d="M 128.777344 295.160156 L 56.652344 309.261719 L 59.601562 266.785156 L 130.109375 273.808594 Z M 128.777344 295.160156 " fill-opacity="1" fill-rule="nonzero"/></g></g></g><g clip-path="url(#df3d41ad2e)"><g clip-path="url(#860394355c)"><g clip-path="url(#50252021f4)"><path fill="#ffcc00" d="M 156.5625 425.695312 L 128.285156 403.292969 L 160.035156 344.722656 L 176.234375 357.558594 Z M 156.5625 425.695312 " fill-opacity="1" fill-rule="nonzero"/></g></g></g><g clip-path="url(#d1ff239313)"><g clip-path="url(#a4b324a2df)"><g clip-path="url(#34e9adb907)"><path fill="#ffcc00" d="M 74.492188 400.953125 L 143.941406 332.835938 L 135.304688 316.273438 L 54.382812 366.660156 Z M 74.492188 400.953125 " fill-opacity="1" fill-rule="nonzero"/></g></g></g><g clip-path="url(#f8a974ef1c)"><g clip-path="url(#7b4e646f31)"><g clip-path="url(#3ad721b63f)"><path fill="#ffcc00" d="M 128.3125 301.867188 L 56.183594 315.96875 L 59.136719 273.492188 L 129.648438 280.511719 Z M 128.3125 301.867188 " fill-opacity="1" fill-rule="nonzero"/></g></g></g><g transform="matrix(1, 0, 0, 1, 115, 169)"><g clip-path="url(#93cdc30b3f)"><g fill="#ffffff" fill-opacity="1"><g transform="translate(0.119295, 62.350877)"><g><path d="M 1.203125 -39.171875 L 2.515625 -13.640625 L 29.234375 -14.765625 L 29.296875 -8.90625 L 2.875 -8.015625 L 3.40625 0.296875 L 40.0625 -0.421875 L 38.75 -24.9375 L 12.859375 -23.671875 L 12.4375 -29.296875 L 38.6875 -30.734375 L 37.734375 -41.5 Z M 1.203125 -39.171875 "/></g></g></g><g fill="#ffffff" fill-opacity="1"><g transform="translate(41.375165, 62.350877)"><g><path d="M 12.921875 -23.671875 L 12.3125 -39.890625 L 1.203125 -39.578125 L 1.203125 0.171875 L 14.59375 0.171875 L 14.59375 -17.34375 L 32.171875 -17.34375 L 32.40625 -0.421875 L 45.921875 -0.171875 L 45.6875 -39.890625 L 32.171875 -39.578125 L 32.171875 -23.328125 Z M 12.921875 -23.671875 "/></g></g></g><g fill="#ffffff" fill-opacity="1"><g transform="translate(88.490572, 62.350877)"><g><path d="M 42.8125 -40.90625 L 1.203125 -38.328125 L 1.90625 -0.296875 L 44.484375 -0.0625 Z M 13.453125 -10.9375 L 12.4375 -31.03125 L 32.703125 -31.9375 L 33.015625 -10.9375 Z M 13.453125 -10.9375 "/></g></g></g><g fill="#ffffff" fill-opacity="1"><g transform="translate(134.170986, 62.350877)"><g><path d="M 1.203125 -41.203125 L 3.046875 0 L 38.515625 -0.125 L 37.4375 -13.515625 L 13.28125 -13.15625 L 13.21875 -30.3125 L 37.4375 -30.734375 L 37.796875 -41.203125 Z M 1.203125 -41.203125 "/></g></g></g><g fill="#ffffff" fill-opacity="1"><g transform="translate(173.872294, 62.350877)"><g><path d="M 13.9375 -39.703125 L 1.203125 -38.984375 L 2.75 0 L 14.53125 0 L 14.234375 -11.953125 L 19.796875 -16.625 L 29.484375 0 L 43 -0.0625 L 28.578125 -23.203125 L 47.0625 -40.421875 L 34.734375 -40.359375 L 14.34375 -22.484375 Z M 13.9375 -39.703125 "/></g></g></g><g fill="#ffffff" fill-opacity="1"><g transform="translate(222.129549, 62.350877)"><g/></g></g><g fill="#ffffff" fill-opacity="1"><g transform="translate(27.151317, 146.007304)"><g><path d="M 14.234375 -13.328125 L 13.09375 -40.359375 L 1.203125 -39.703125 L 2.984375 0 L 55.671875 -0.125 L 54.234375 -41.265625 L 43 -41.4375 L 43.296875 -13.75 L 33.421875 -13.515625 L 32.59375 -29.65625 L 24.28125 -28.40625 L 25.171875 -13.6875 Z M 14.234375 -13.328125 "/></g></g></g><g fill="#ffffff" fill-opacity="1"><g transform="translate(84.012677, 146.007304)"><g><path d="M 42.6875 -0.125 L 42.9375 -41.203125 L 2.6875 -42.515625 L 1.203125 -0.125 L 14.171875 0 L 14.828125 -18.421875 L 31.28125 -18.0625 L 31.390625 -0.0625 Z M 31.328125 -33.90625 L 31.578125 -26.1875 L 14.34375 -26.78125 L 14.53125 -34.5625 Z M 31.328125 -33.90625 "/></g></g></g><g fill="#ffffff" fill-opacity="1"><g transform="translate(128.138517, 146.007304)"><g><path d="M 24.515625 -13.578125 L 14.046875 -40.359375 L 1.203125 -39.9375 L 19.3125 -0.0625 L 31.453125 0 L 46.765625 -38.453125 L 34.6875 -39.171875 Z M 24.515625 -13.578125 "/></g></g></g><g fill="#ffffff" fill-opacity="1"><g transform="translate(176.090988, 146.007304)"><g><path d="M 13.515625 -23.328125 L 13.515625 -30.078125 L 42.6875 -29.78125 L 42.6875 -40.296875 L 1.203125 -40.90625 L 1.609375 -0.125 L 41.5625 0.125 L 41.203125 -9.75 L 13.8125 -10.46875 L 13.9375 -17.703125 L 36.421875 -17.34375 L 36.78125 -22.90625 Z M 13.515625 -23.328125 "/></g></g></g></g></g></svg>